<mxfile host="app.diagrams.net" modified="2023-04-19T16:55:03.457Z" agent="Mozilla/5.0 (Windows NT 10.0; Win64; x64) AppleWebKit/537.36 (KHTML, like Gecko) Chrome/111.0.0.0 Safari/537.36 OPR/97.0.0.0" etag="sio2-tyFwbci1V_KcnTz" version="21.2.0">
  <diagram name="Seite-1" id="koYCksM2G45ItbOFObBV">
    <mxGraphModel dx="961" dy="523" grid="1" gridSize="10" guides="1" tooltips="1" connect="1" arrows="1" fold="1" page="1" pageScale="1" pageWidth="827" pageHeight="1169" math="0" shadow="0">
      <root>
        <mxCell id="0" />
        <mxCell id="1" parent="0" />
        <mxCell id="saxExuk2gletovmnnJZW-9" value="DamageProjectileSkill" style="rounded=0;whiteSpace=wrap;html=1;" parent="1" vertex="1">
          <mxGeometry x="360" y="130" width="140" height="40" as="geometry" />
        </mxCell>
        <mxCell id="saxExuk2gletovmnnJZW-13" style="edgeStyle=orthogonalEdgeStyle;rounded=0;orthogonalLoop=1;jettySize=auto;html=1;exitX=0.5;exitY=0;exitDx=0;exitDy=0;entryX=0.5;entryY=1;entryDx=0;entryDy=0;endArrow=block;endFill=0;startSize=7;endSize=15;" parent="1" source="saxExuk2gletovmnnJZW-19" target="saxExuk2gletovmnnJZW-9" edge="1">
          <mxGeometry relative="1" as="geometry">
            <mxPoint x="270" y="230" as="sourcePoint" />
          </mxGeometry>
        </mxCell>
        <mxCell id="saxExuk2gletovmnnJZW-14" style="edgeStyle=orthogonalEdgeStyle;rounded=0;orthogonalLoop=1;jettySize=auto;html=1;exitX=0.5;exitY=0;exitDx=0;exitDy=0;entryX=0.5;entryY=1;entryDx=0;entryDy=0;endArrow=block;endFill=0;endSize=15;" parent="1" source="saxExuk2gletovmnnJZW-20" target="saxExuk2gletovmnnJZW-9" edge="1">
          <mxGeometry relative="1" as="geometry">
            <mxPoint x="595.9999999999998" y="230" as="sourcePoint" />
          </mxGeometry>
        </mxCell>
        <mxCell id="saxExuk2gletovmnnJZW-19" value="BouncingArrowSkill" style="rounded=0;whiteSpace=wrap;html=1;" parent="1" vertex="1">
          <mxGeometry x="120" y="230" width="300" height="30" as="geometry" />
        </mxCell>
        <mxCell id="saxExuk2gletovmnnJZW-20" value="HomingSparkSkill" style="rounded=0;whiteSpace=wrap;html=1;" parent="1" vertex="1">
          <mxGeometry x="440" y="230" width="320" height="30" as="geometry" />
        </mxCell>
        <mxCell id="hM2szUcvU66wUGxsxTJx-1" value="- bounceAmount: int" style="rounded=0;whiteSpace=wrap;html=1;align=left;" vertex="1" parent="1">
          <mxGeometry x="120" y="260" width="300" height="20" as="geometry" />
        </mxCell>
        <mxCell id="hM2szUcvU66wUGxsxTJx-2" value="+ BouncingArrowSkill(texturePath: String,&amp;nbsp; &amp;nbsp; &amp;nbsp; &amp;nbsp; &amp;nbsp; &amp;nbsp; &amp;nbsp; &amp;nbsp; &amp;nbsp; &amp;nbsp; &amp;nbsp; &amp;nbsp; &amp;nbsp; &amp;nbsp;projectileSpeed: float, projectileDamage: Damage,&amp;nbsp; &amp;nbsp; &amp;nbsp; &amp;nbsp; &amp;nbsp;projectileHitboxSize: Point, selectionFunction:&amp;nbsp; &amp;nbsp; &amp;nbsp; &amp;nbsp; &amp;nbsp; &amp;nbsp; &amp;nbsp; &amp;nbsp; &amp;nbsp;ITargetSelection, projectileRange: float) : void" style="rounded=0;whiteSpace=wrap;html=1;align=left;" vertex="1" parent="1">
          <mxGeometry x="120" y="280" width="300" height="60" as="geometry" />
        </mxCell>
        <mxCell id="hM2szUcvU66wUGxsxTJx-3" value="+ HomingSparkSkill(texturePath: String,&amp;nbsp; &amp;nbsp; &amp;nbsp; &amp;nbsp; &amp;nbsp; &amp;nbsp; &amp;nbsp; &amp;nbsp; &amp;nbsp; &amp;nbsp; &amp;nbsp; &amp;nbsp; &amp;nbsp; &amp;nbsp; &amp;nbsp; &amp;nbsp; &amp;nbsp;projectileSpeed: float, projectileDamage: Damage,&amp;nbsp; &amp;nbsp; &amp;nbsp; &amp;nbsp; &amp;nbsp; &amp;nbsp; &amp;nbsp; &amp;nbsp;projectileHitboxSize: Point, selectionFunction:&amp;nbsp; &amp;nbsp; &amp;nbsp; &amp;nbsp; &amp;nbsp; &amp;nbsp; &amp;nbsp; &amp;nbsp; &amp;nbsp; &amp;nbsp; &amp;nbsp; &amp;nbsp;ITargetSelection, projectileRange: float) : void" style="rounded=0;whiteSpace=wrap;html=1;align=left;" vertex="1" parent="1">
          <mxGeometry x="440" y="260" width="320" height="60" as="geometry" />
        </mxCell>
      </root>
    </mxGraphModel>
  </diagram>
</mxfile>
